<svg width="224" height="81" viewBox="0 0 224 81" fill="none" xmlns="http://www.w3.org/2000/svg">
<path d="M44.5003 81C16.901 81 0 63.0358 0 40.5C0 17.9642 16.901 0 44.5003 0H223.217V81H44.5003Z" fill="#009257"/>
<path d="M213.965 24.4916C213.201 24.4916 212.485 24.3145 211.827 23.9523C211.168 23.6063 210.64 23.1153 210.241 22.4714C209.843 21.8356 209.64 21.1515 209.64 20.403C209.64 19.6545 209.835 18.9945 210.225 18.3586C210.615 17.7228 211.136 17.2238 211.802 16.8616C212.469 16.4994 213.192 16.3143 213.973 16.3143C214.753 16.3143 215.477 16.4994 216.143 16.8616C216.81 17.2238 217.338 17.7228 217.721 18.3586C218.103 18.9864 218.298 19.6786 218.298 20.403C218.298 21.1273 218.103 21.8356 217.704 22.4714C217.306 23.1153 216.777 23.5982 216.119 23.9523C215.461 24.3065 214.745 24.4916 213.981 24.4916H213.965ZM213.965 23.5741C214.518 23.5741 215.054 23.4372 215.591 23.1716C216.119 22.906 216.542 22.5197 216.859 22.0127C217.184 21.5056 217.338 20.9664 217.338 20.3949C217.338 19.8235 217.184 19.3164 216.883 18.8094C216.582 18.3184 216.16 17.924 215.631 17.6423C215.095 17.3526 214.534 17.2158 213.965 17.2158C213.396 17.2158 212.843 17.3606 212.306 17.6423C211.77 17.924 211.347 18.3104 211.054 18.8094C210.754 19.3084 210.607 19.8396 210.607 20.3949C210.607 20.9503 210.77 21.5056 211.079 22.0127C211.396 22.5197 211.819 22.906 212.347 23.1716C212.875 23.4372 213.42 23.5741 213.973 23.5741H213.965ZM212.217 22.898V18.0206H213.721C214.298 18.0206 214.704 18.0689 214.94 18.1574C215.176 18.246 215.363 18.3828 215.501 18.5599C215.648 18.7369 215.713 18.9784 215.713 19.2842C215.713 19.5901 215.623 19.8476 215.452 20.081C215.274 20.3225 215.005 20.5317 214.648 20.7088L215.867 22.8899H214.778L213.672 20.902H213.184V22.8899H212.217V22.898ZM213.184 20.2259H213.607C213.948 20.2259 214.209 20.1454 214.379 19.9844C214.55 19.8235 214.639 19.6223 214.639 19.3728C214.639 19.1635 214.566 18.9945 214.428 18.8738C214.298 18.753 214.038 18.6886 213.648 18.6886H213.184V20.2178V20.2259Z" fill="white"/>
<path d="M77.9452 35.2202C80.8636 35.2202 83.213 37.7314 83.213 40.7898C83.213 43.8482 80.8636 46.3674 77.9452 46.3674C75.0267 46.3674 72.718 43.8482 72.718 40.7898C72.718 37.7314 75.0755 35.2202 77.9452 35.2202ZM137.672 35.2202C140.59 35.2202 142.94 37.7314 142.94 40.7898C142.94 43.8482 140.59 46.3674 137.672 46.3674C134.753 46.3674 132.445 43.8482 132.445 40.7898C132.445 37.7314 134.802 35.2202 137.672 35.2202ZM194.407 17.2399H146.882V63.2531H158.954V27.703H171.766V63.2531H183.83V27.703H190.968C196.098 27.703 196.642 31.9445 196.642 33.7715V63.2531H208.706V31.4053C208.706 24.4433 203.365 17.2319 194.407 17.2319V17.2399ZM18.0804 40.2506C18.0804 25.4011 25.9659 17.2319 40.298 17.2319H68.7427V26.6969H43.6636C36.0219 26.6969 32.1442 31.2523 32.1442 40.2506C32.1442 49.2488 36.0219 53.7962 43.6636 53.7962H55.8495V44.798H48.0534V35.7032H68.7346V63.2612H40.2899C25.9578 63.2612 18.0723 55.092 18.0723 40.2506H18.0804ZM116.714 17.2319V47.6149C116.714 50.6412 113.105 53.9008 107.731 53.9008C102.358 53.9008 98.9596 50.7377 98.9596 47.6149V17.2319H87.1801V48.2588C87.1801 58.0538 95.8136 64.3719 107.739 64.3719C119.665 64.3719 128.502 57.8928 128.502 48.2588V17.2319H116.722H116.714Z" fill="white"/>
</svg>
